HIERARCHY
ROOT SpineBase
{
  OFFSET 0.000000 0.000000 0.000000
  CHANNELS 6 Xposition Yposition Zposition Zrotation Xrotation Yrotation
  JOINT SpineMid
  {
    OFFSET 0.000000 33.081085 0.000000
    CHANNELS 3 Zrotation Xrotation Yrotation
    JOINT SpineShoulder
    {
      OFFSET 0.181509 24.524497 -0.750235
      CHANNELS 3 Zrotation Xrotation Yrotation
      JOINT Neck
      {
        OFFSET 0.106517 8.083777 -0.576467
        CHANNELS 3 Zrotation Xrotation Yrotation
        JOINT Head
        {
          OFFSET 5.502071 12.393260 4.475905
          CHANNELS 3 Zrotation Xrotation Yrotation
          End Site
          {
            OFFSET 0 0 0
          }
        }
      }
      JOINT ShoulderLeft
      {
        OFFSET -10.256908 -3.666558 -11.239281
        CHANNELS 3 Zrotation Xrotation Yrotation
        JOINT ElbowLeft
        {
          OFFSET -6.169178 -25.585759 -6.030828
          CHANNELS 3 Zrotation Xrotation Yrotation
          JOINT WristLeft
          {
            OFFSET 0.184025 -24.460393 -4.960887
            CHANNELS 3 Zrotation Xrotation Yrotation
            JOINT HandLeft
            {
              OFFSET -0.850470 -7.241020 -0.952379
              CHANNELS 3 Zrotation Xrotation Yrotation
              JOINT HandTipLeft
              {
                OFFSET 2.387168 -7.324042 -1.860723
                CHANNELS 3 Zrotation Xrotation Yrotation
                End Site
                {
                  OFFSET 0 0 0
                }
              }
              JOINT ThumbLeft
              {
                OFFSET -1.801119 -2.466532 -2.920384
                CHANNELS 3 Zrotation Xrotation Yrotation
                End Site
                {
                  OFFSET 0 0 0
                }
              }
            }
          }
        }
      }
      JOINT ShoulderRight
      {
        OFFSET 11.674417 -5.050044 11.085167
        CHANNELS 3 Zrotation Xrotation Yrotation
        JOINT ElbowRight
        {
          OFFSET 3.468334 -24.681776 7.594386
          CHANNELS 3 Zrotation Xrotation Yrotation
          JOINT WristRight
          {
            OFFSET 2.941477 -26.218822 1.716536
            CHANNELS 3 Zrotation Xrotation Yrotation
            JOINT HandRight
            {
              OFFSET 0.090747 -11.925220 3.749988
              CHANNELS 3 Zrotation Xrotation Yrotation
              JOINT HandTipRight
              {
                OFFSET 1.024928 -3.388187 -1.084668
                CHANNELS 3 Zrotation Xrotation Yrotation
                End Site
                {
                  OFFSET 0 0 0
                }
              }
              JOINT ThumbRight
              {
                OFFSET -1.929763 -0.415528 -2.379327
                CHANNELS 3 Zrotation Xrotation Yrotation
                End Site
                {
                  OFFSET 0 0 0
                }
              }
            }
          }
        }
      }
    }
  }
  JOINT HipLeft
  {
    OFFSET -4.598075 1.563572 -8.345706
    CHANNELS 3 Zrotation Xrotation Yrotation
    JOINT KneeLeft
    {
      OFFSET -9.799413 -27.068018 -20.994494
      CHANNELS 3 Zrotation Xrotation Yrotation
      JOINT AnkleLeft
      {
        OFFSET -3.759215 -40.917573 16.184477
        CHANNELS 3 Zrotation Xrotation Yrotation
        JOINT FootLeft
        {
          OFFSET 10.033849 -2.558984 -11.326271
          CHANNELS 3 Zrotation Xrotation Yrotation
          End Site
          {
            OFFSET 0 0 0
          }
        }
      }
    }
  }
  JOINT HipRight
  {
    OFFSET 5.241293 -0.194030 0.976646
    CHANNELS 3 Zrotation Xrotation Yrotation
    JOINT KneeRight
    {
      OFFSET 1.194518 -35.079575 4.578546
      CHANNELS 3 Zrotation Xrotation Yrotation
      JOINT AnkleRight
      {
        OFFSET -3.952059 -35.976006 8.962378
        CHANNELS 3 Zrotation Xrotation Yrotation
        JOINT FootRight
        {
          OFFSET 2.716498 -8.225091 -4.805642
          CHANNELS 3 Zrotation Xrotation Yrotation
          End Site
          {
            OFFSET 0 0 0
          }
        }
      }
    }
  }
}
MOTION
Frames: 6
Frame Time: 0.033333
-28.531713 80.752999 352.903925 -0.000000 0.000000 -43.454437 -0.000000 0.000000 43.454437 -0.000000 0.000000 0.000000 -0.000000 0.000000 0.000000 0.000000 0.000000 0.000000 -0.000000 0.000000 0.000000 -0.000000 0.000000 0.000000 -0.000000 0.000000 0.000000 -0.000000 0.000000 0.000000 0.000000 0.000000 0.000000 0.000000 0.000000 0.000000 -0.000000 0.000000 0.000000 -0.000000 0.000000 0.000000 -0.000000 0.000000 0.000000 -0.000000 0.000000 0.000000 0.000000 0.000000 0.000000 0.000000 0.000000 0.000000 -0.000000 0.000000 43.454437 -0.000000 0.000000 0.000000 -0.000000 0.000000 0.000000 0.000000 0.000000 0.000000 -0.000000 0.000000 43.454437 -0.000000 0.000000 0.000000 -0.000000 0.000000 0.000000 0.000000 0.000000 0.000000
-28.231674 80.665522 352.756268 0.263832 -0.118115 -43.071413 -0.273392 -0.093890 43.071461 -0.000000 0.000000 0.000000 0.911933 0.283691 -0.458770 0.000000 0.000000 0.000000 -0.000000 0.000000 0.000000 -0.000000 0.000000 0.000000 -0.000000 0.000000 0.000000 -2.164255 -1.909403 -0.109701 0.000000 0.000000 0.000000 0.000000 0.000000 0.000000 -0.000000 0.000000 0.000000 -0.296718 -1.568345 -0.199329 2.942375 2.875605 0.935402 -6.899148 -3.888803 -0.534948 0.000000 0.000000 0.000000 0.000000 0.000000 0.000000 -0.273392 -0.093890 43.071461 -0.000000 0.000000 0.000000 -9.206690 -9.820186 4.749892 0.000000 0.000000 0.000000 -0.273392 -0.093890 43.071461 -0.000000 0.000000 0.000000 0.105839 1.766714 0.515266 0.000000 0.000000 0.000000
-28.008025 80.588945 352.576656 0.524719 -0.246230 -42.746703 -0.552463 -0.175339 42.746986 0.763218 -0.483122 0.063997 0.955151 0.970625 -0.920842 0.000000 0.000000 0.000000 -0.445965 -0.379159 0.075645 0.517081 -0.055852 -0.313486 -0.885605 0.070207 0.289530 -3.885288 -2.585494 -0.290836 0.000000 0.000000 0.000000 0.000000 0.000000 0.000000 -0.766904 -0.364022 -0.177470 -0.509505 -2.164080 -0.257267 5.071537 5.288418 1.490414 -11.790066 -7.203271 -1.477508 0.000000 0.000000 0.000000 0.000000 0.000000 0.000000 -0.910806 -0.822235 43.372056 0.194514 -0.392378 -0.771923 -18.933739 -21.680711 8.853266 0.000000 0.000000 0.000000 0.192479 -1.043351 42.710532 -0.930082 1.563589 -0.221226 1.390863 3.028722 1.148967 0.000000 0.000000 0.000000
-27.860765 80.523268 352.365090 0.782592 -0.384318 -42.481121 0.260300 -0.032490 42.518076 0.170108 -0.113840 0.056024 1.294713 1.313176 -1.280051 0.000000 0.000000 0.000000 -0.659779 -0.505686 0.098601 0.730298 -0.082870 -0.441065 -1.255460 -0.143814 0.442000 -5.308790 -3.200406 -0.415258 0.000000 0.000000 0.000000 0.000000 0.000000 0.000000 -1.126026 -0.284840 -0.221223 -0.649186 -3.342751 -0.402298 6.569016 7.292461 1.804385 -14.947703 -10.075512 -2.626966 0.000000 0.000000 0.000000 0.000000 0.000000 0.000000 -1.230479 -1.163388 43.332194 0.203400 -0.481889 -1.053155 -28.696315 -33.868196 10.732491 0.000000 0.000000 0.000000 0.220089 -1.392947 42.444539 -1.352147 2.018907 -0.291039 2.306387 4.589507 1.411111 0.000000 0.000000 0.000000
-27.789895 80.468491 352.121569 1.037385 -0.532345 -42.275367 0.322699 -0.020883 42.325573 0.205047 -0.129611 0.072399 1.542038 1.564049 -1.567606 0.000000 0.000000 0.000000 -0.867265 -0.590270 0.111192 0.904874 -0.098123 -0.546465 -1.565554 -0.534888 0.595868 -6.449222 -3.423982 -0.499798 0.000000 0.000000 0.000000 0.000000 0.000000 0.000000 -1.467815 -0.031494 -0.235262 -0.712271 -4.583578 -0.556723 7.528793 8.918868 1.962826 -16.576065 -12.608350 -3.843388 0.000000 0.000000 0.000000 0.000000 0.000000 0.000000 -1.457263 -1.460344 43.295804 0.154768 -0.499936 -1.263474 -37.038135 -43.432040 10.578910 0.000000 0.000000 0.000000 0.208968 -1.629784 42.248280 -1.746546 2.263645 -0.340160 3.377879 6.182362 1.455358 0.000000 0.000000 0.000000
-27.795414 80.424614 351.846093 1.289034 -0.690274 -42.130050 0.372779 0.002498 42.193806 0.228988 -0.134263 0.087516 1.697360 1.725433 -1.781210 0.000000 0.000000 0.000000 -1.068258 -0.632992 0.113113 1.035659 -0.095217 -0.628046 -1.809143 -1.106328 0.748519 -7.336224 -3.286136 -0.534963 0.000000 0.000000 0.000000 0.000000 0.000000 0.000000 -1.793728 1.076917 -0.125314 -0.706305 -6.565629 -0.821626 7.979186 10.173604 2.019104 -16.805259 -14.863411 -5.018040 0.000000 0.000000 0.000000 0.000000 0.000000 0.000000 -1.589239 -1.714517 43.264192 0.048962 -0.446194 -1.401894 -43.319070 -49.716380 9.474150 0.000000 0.000000 0.000000 0.162870 -1.754075 42.121450 -2.115078 2.302230 -0.372451 4.613559 7.803207 1.271838 0.000000 0.000000 0.000000
